<?xml version="1.0" standalone="no"?><!DOCTYPE svg PUBLIC "-//W3C//DTD SVG 1.1//EN" "http://www.w3.org/Graphics/SVG/1.1/DTD/svg11.dtd"><svg t="1615804786129" class="icon" viewBox="0 0 1024 1024" version="1.1" xmlns="http://www.w3.org/2000/svg" p-id="5845" xmlns:xlink="http://www.w3.org/1999/xlink" width="200" height="200"><defs><style type="text/css"></style></defs><path d="M819.5 302.8c-11 0-20 9-20 20v567.6c0 15.1-12.2 27.3-27.3 27.3H251.8c-15.1 0-27.3-12.2-27.3-27.3V322.8c0-11-9-20-20-20s-20 9-20 20v567.6c0 37.1 30.2 67.3 67.3 67.3h520.3c37.1 0 67.3-30.2 67.3-67.3V322.8c0.1-11.1-8.9-20-19.9-20z" p-id="5846"></path><path d="M366.4 843.1V417.4c0-11-9-20-20-20s-20 9-20 20v425.7c0 11 9 20 20 20s20-8.9 20-20zM532 843.1V417.4c0-11-9-20-20-20s-20 9-20 20v425.7c0 11 9 20 20 20s20-8.9 20-20zM697.6 843.1V417.4c0-11-9-20-20-20s-20 9-20 20v425.7c0 11 9 20 20 20s20-8.9 20-20zM914.1 191.5H792.2v-57.9c0-37.1-30.2-67.3-67.3-67.3H299.1c-37.1 0-67.3 30.2-67.3 67.3v57.9H109.9c-11 0-20 9-20 20s9 20 20 20H914c11 0 20-9 20-20s-8.9-20-19.9-20z m-642.3 0v-57.9c0-15.1 12.2-27.3 27.3-27.3h425.7c15.1 0 27.3 12.2 27.3 27.3v57.9H271.8z" p-id="5847"></path></svg>