<?xml version="1.0" standalone="no"?><!DOCTYPE svg PUBLIC "-//W3C//DTD SVG 1.1//EN" "http://www.w3.org/Graphics/SVG/1.1/DTD/svg11.dtd"><svg t="1615804631355" class="icon" viewBox="0 0 1024 1024" version="1.1" xmlns="http://www.w3.org/2000/svg" p-id="5076" xmlns:xlink="http://www.w3.org/1999/xlink" width="200" height="200"><defs><style type="text/css"></style></defs><path d="M1000.442905 188.191841h-100.39785v100.382567c0 8.73202-7.05592 15.793035-15.736995 15.793035h-20.026587a15.767562 15.767562 0 0 1-15.74209-15.793035V188.191841h-100.387662a15.762468 15.762468 0 0 1-15.782845-15.747184v-20.021493a15.752279 15.752279 0 0 1 15.782845-15.7319h100.387662V36.298507a15.762468 15.762468 0 0 1 15.74209-15.78794h20.026587a15.757373 15.757373 0 0 1 15.736995 15.78794v100.392757h100.39785a15.752279 15.752279 0 0 1 15.777752 15.736995v20.021492a15.762468 15.762468 0 0 1-15.777752 15.74209M511.607721 745.920318s-205.008876-136.895045-205.008875-287.025671c0-63.661214 23.872955-123.007363 102.486607-123.007363 73.621015 0 102.522269 61.501134 102.522268 61.501134s29.512597-61.501134 102.486607-61.501134c78.618746 0 102.491701 59.346149 102.491702 123.007363 0 150.130627-204.978308 287.025672-204.978309 287.025671" fill="" p-id="5077"></path><path d="M64.277652 525.123502c0 243.839363 203.480517 447.335164 447.330069 447.335165 243.859741 0 447.294408-203.490706 447.294408-447.335165 0-10.616995-0.86607-21.07606-1.589492-31.524935h52.05588c0.64191 10.448876 1.08004 20.948697 1.08004 31.524935 0 278.68593-220.139622 498.876498-498.840836 498.876498C232.921791 1024 12.736318 803.809433 12.736318 525.123502 12.736318 246.442667 232.916697 26.282667 511.607721 26.282667c10.586428 0 21.091343 0.433035 31.524936 1.074945v52.06607c-10.438687-0.733612-20.897751-1.594587-31.524936-1.594587-243.849552 0.005095-447.33007 203.434667-447.330069 447.294407" fill="" p-id="5078"></path></svg>