<?xml version="1.0" standalone="no"?><!DOCTYPE svg PUBLIC "-//W3C//DTD SVG 1.1//EN" "http://www.w3.org/Graphics/SVG/1.1/DTD/svg11.dtd"><svg t="1615806023312" class="icon" viewBox="0 0 1024 1024" version="1.1" xmlns="http://www.w3.org/2000/svg" p-id="6609" xmlns:xlink="http://www.w3.org/1999/xlink" width="200" height="200"><defs><style type="text/css"></style></defs><path d="M559.786667 512l283.306666-318.72a40.490667 40.490667 0 0 0 0-53.76 30.506667 30.506667 0 0 0-47.786666 0L512 458.24 228.693333 139.52a30.506667 30.506667 0 0 0-47.786666 0 40.490667 40.490667 0 0 0 0 53.76L464.213333 512l-283.306666 318.72a40.490667 40.490667 0 0 0 0 53.76 29.482667 29.482667 0 0 0 23.893333 11.52 29.482667 29.482667 0 0 0 23.893333-11.52L512 565.76l283.306667 318.72a30.506667 30.506667 0 0 0 47.786666 0 40.490667 40.490667 0 0 0 0-53.76L559.786667 512z" p-id="6610"></path></svg>