<?xml version="1.0" standalone="no"?><!DOCTYPE svg PUBLIC "-//W3C//DTD SVG 1.1//EN" "http://www.w3.org/Graphics/SVG/1.1/DTD/svg11.dtd"><svg t="1615604653923" class="icon" viewBox="0 0 1024 1024" version="1.1" xmlns="http://www.w3.org/2000/svg" p-id="3637" xmlns:xlink="http://www.w3.org/1999/xlink" width="200" height="200"><defs><style type="text/css"></style></defs><path d="M151.703704 168.618667v212.688592a18.962963 18.962963 0 0 0 29.639111 15.663408l155.97037-106.344297a18.962963 18.962963 0 0 0 0-31.326814L181.342815 152.955259A18.962963 18.962963 0 0 0 151.703704 168.618667z" fill="#434343" p-id="3638"></path><path d="M474.074074 246.518519m28.444445 0l341.333333 0q28.444444 0 28.444444 28.444444l0 0q0 28.444444-28.444444 28.444444l-341.333333 0q-28.444444 0-28.444445-28.444444l0 0q0-28.444444 28.444445-28.444444Z" fill="#434343" p-id="3639"></path><path d="M151.703704 530.962963m28.444444 0l663.703704 0q28.444444 0 28.444444 28.444444l0 0q0 28.444444-28.444444 28.444445l-663.703704 0q-28.444444 0-28.444444-28.444445l0 0q0-28.444444 28.444444-28.444444Z" fill="#434343" p-id="3640"></path><path d="M151.703704 815.407407m28.444444 0l663.703704 0q28.444444 0 28.444444 28.444445l0 0q0 28.444444-28.444444 28.444444l-663.703704 0q-28.444444 0-28.444444-28.444444l0 0q0-28.444444 28.444444-28.444445Z" fill="#434343" p-id="3641"></path></svg>