<?xml version="1.0" standalone="no"?><!DOCTYPE svg PUBLIC "-//W3C//DTD SVG 1.1//EN" "http://www.w3.org/Graphics/SVG/1.1/DTD/svg11.dtd"><svg t="1615338956489" class="icon" viewBox="0 0 1024 1024" version="1.1" xmlns="http://www.w3.org/2000/svg" p-id="4115" xmlns:xlink="http://www.w3.org/1999/xlink" width="200" height="200"><defs><style type="text/css"></style></defs><path d="M509.2876341 816.40142786c56.09665844 0.12328937 101.34385326 45.37048419 101.2205639 101.59043198-0.12328937 55.97336907-45.61706291 101.46714262-101.71372133 101.34385327-55.85007972 0-101.34385326-45.74035224-101.22056391-101.8370107 0.12328937-55.97336907 45.49377354-101.09727454 101.71372134-101.09727455z m-101.59043199-711.37960259c0-56.09665844 45.37048419-101.71372135 101.34385327-101.71372132 55.97336907-0.12328937 101.59043198 45.37048419 101.59043198 101.46714262 0 56.21994779-45.12390547 101.59043198-101.34385326 101.59043199s-101.59043198-45.12390547-101.59043199-101.34385329zM610.63148736 511.50684257c0 55.97336907-45.98693098 101.8370107-101.59043198 101.59043197-56.09665844-0.36986808-101.34385326-45.74035224-101.34385327-101.8370107 0-55.97336907 45.74035224-101.71372135 101.59043199-101.46714262 55.97336907 0.12328937 101.34385326 45.61706291 101.34385326 101.71372135z" fill="#ffffff" p-id="4116"></path></svg>