<?xml version="1.0" standalone="no"?><!DOCTYPE svg PUBLIC "-//W3C//DTD SVG 1.1//EN" "http://www.w3.org/Graphics/SVG/1.1/DTD/svg11.dtd"><svg t="1615359553595" class="icon" viewBox="0 0 1024 1024" version="1.1" xmlns="http://www.w3.org/2000/svg" p-id="10691" xmlns:xlink="http://www.w3.org/1999/xlink" width="200" height="200"><defs><style type="text/css"></style></defs><path d="M0 0h1024v1024H0z" fill="#FFFFFF" p-id="10692"></path><path d="M892.7 62.7H153c-44.9 0-81.6 36.7-81.6 81.6V884c0 44.9 36.7 81.6 81.6 81.6h739.8c44.9 0 81.6-36.7 81.6-81.6V144.3c-0.1-44.9-36.8-81.6-81.7-81.6z" fill="#F0575B" p-id="10693"></path><path d="M522.9 887.9c-50.4 0-99.4-9.9-145.5-29.4-44.5-18.8-84.5-45.8-118.8-80.1s-61.3-74.3-80.1-118.8c-19.5-46.1-29.4-95-29.4-145.5 0-50.4 9.9-99.4 29.4-145.5 18.8-44.5 45.8-84.5 80.1-118.8s74.3-61.3 118.8-80.1c46.1-19.5 95-29.4 145.5-29.4 50.4 0 99.4 9.9 145.5 29.4 44.5 18.8 84.5 45.8 118.8 80.1s61.3 74.3 80.1 118.8c19.5 46.1 29.4 95 29.4 145.5 0 50.4-9.9 99.4-29.4 145.5-18.8 44.5-45.8 84.5-80.1 118.8s-74.3 61.3-118.8 80.1c-46.2 19.5-95.1 29.4-145.5 29.4z m0-727.5c-195 0-353.7 158.7-353.7 353.7s158.7 353.7 353.7 353.7 353.7-158.7 353.7-353.7-158.7-353.7-353.7-353.7z" fill="#FFFFFF" p-id="10694"></path><path d="M715 511l-144.1 82.9-144.2 82.9 0.3-166.3 0.3-166.3 143.8 83.4z" fill="#FFFFFF" p-id="10695"></path></svg>