<?xml version="1.0" standalone="no"?><!DOCTYPE svg PUBLIC "-//W3C//DTD SVG 1.1//EN" "http://www.w3.org/Graphics/SVG/1.1/DTD/svg11.dtd"><svg t="1615359433878" class="icon" viewBox="0 0 1024 1024" version="1.1" xmlns="http://www.w3.org/2000/svg" p-id="4755" xmlns:xlink="http://www.w3.org/1999/xlink" width="200" height="200"><defs><style type="text/css"></style></defs><path d="M933.647059 1024H90.352941a90.352941 90.352941 0 0 1-90.352941-90.352941V90.352941a90.352941 90.352941 0 0 1 90.352941-90.352941h843.294118a90.352941 90.352941 0 0 1 90.352941 90.352941v843.294118a90.352941 90.352941 0 0 1-90.352941 90.352941z m30.117647-933.647059a30.117647 30.117647 0 0 0-30.117647-30.117647H90.352941a30.117647 30.117647 0 0 0-30.117647 30.117647v843.294118a30.117647 30.117647 0 0 0 30.117647 30.117647h843.294118a30.117647 30.117647 0 0 0 30.117647-30.117647V90.352941z m-210.82353 451.764706h-210.823529v210.823529a30.117647 30.117647 0 0 1-60.235294 0v-210.823529H271.058824a30.117647 30.117647 0 0 1 0-60.235294h210.823529V271.058824a30.117647 30.117647 0 0 1 60.235294 0v210.823529h210.823529a30.117647 30.117647 0 0 1 0 60.235294z" p-id="4756"></path></svg>