<?xml version="1.0" standalone="no"?><!DOCTYPE svg PUBLIC "-//W3C//DTD SVG 1.1//EN" "http://www.w3.org/Graphics/SVG/1.1/DTD/svg11.dtd"><svg t="1615016173219" class="icon" viewBox="0 0 1024 1024" version="1.1" xmlns="http://www.w3.org/2000/svg" p-id="3691" xmlns:xlink="http://www.w3.org/1999/xlink" width="200" height="200"><defs><style type="text/css"></style></defs><path d="M313.6 940.8 147.2 940.8c-38.4 0-64-32-64-64l0-166.4c0-12.8-12.8-25.6-25.6-25.6s-25.6 12.8-25.6 25.6l0 166.4c0 64 51.2 115.2 115.2 115.2l166.4 0c12.8 0 25.6-12.8 25.6-25.6C339.2 953.6 326.4 940.8 313.6 940.8z" p-id="3692"></path><path d="M966.4 684.8c-12.8 0-25.6 12.8-25.6 25.6l0 166.4c0 38.4-32 64-64 64l-166.4 0c-12.8 0-25.6 12.8-25.6 25.6 0 12.8 12.8 25.6 25.6 25.6l166.4 0c64 0 115.2-51.2 115.2-115.2l0-166.4C992 697.6 979.2 684.8 966.4 684.8z" p-id="3693"></path><path d="M876.8 32l-166.4 0c-12.8 0-25.6 12.8-25.6 25.6s12.8 25.6 25.6 25.6l166.4 0c38.4 0 64 32 64 64l0 166.4c0 12.8 12.8 25.6 25.6 25.6 12.8 0 25.6-12.8 25.6-25.6L992 147.2C992 83.2 940.8 32 876.8 32z" p-id="3694"></path><path d="M57.6 339.2c12.8 0 25.6-12.8 25.6-25.6L83.2 147.2c0-38.4 32-64 64-64l166.4 0c12.8 0 25.6-12.8 25.6-25.6S326.4 32 313.6 32L147.2 32c-64 0-115.2 51.2-115.2 115.2l0 166.4C32 326.4 44.8 339.2 57.6 339.2z" p-id="3695"></path><path d="M966.4 486.4 57.6 486.4C44.8 486.4 32 499.2 32 512s12.8 25.6 25.6 25.6l908.8 0c12.8 0 25.6-12.8 25.6-25.6S979.2 486.4 966.4 486.4z" p-id="3696"></path></svg>